# Blender v2.70 (sub 0) OBJ File: 'sword2.blend'
# www.blender.org
o Cylinder
v 0.258518 2.543640 -0.033042
v 0.268520 2.549430 -0.031261
v 0.278016 2.554936 -0.027897
v 0.286641 2.559947 -0.023080
v 0.294064 2.564270 -0.016995
v 0.300000 2.567739 -0.009876
v 0.304220 2.570221 -0.001996
v 0.306563 2.571620 0.006342
v 0.306937 2.571883 0.014817
v 0.305330 2.570999 0.023104
v 0.301802 2.569003 0.030885
v 0.296490 2.565971 0.037859
v 0.289596 2.562019 0.043760
v 0.281388 2.557300 0.048361
v 0.272178 2.551995 0.051484
v 0.262323 2.546307 0.053009
v 0.252200 2.540456 0.052879
v 0.242198 2.534666 0.051098
v 0.232702 2.529160 0.047735
v 0.224077 2.524149 0.042918
v 0.216654 2.519825 0.036833
v 0.210718 2.516356 0.029713
v 0.206498 2.513875 0.021833
v 0.204156 2.512475 0.013496
v 0.203781 2.512213 0.005020
v 0.205389 2.513096 -0.003267
v 0.208916 2.515093 -0.011047
v 0.214229 2.518125 -0.018022
v 0.221122 2.522077 -0.023923
v 0.229331 2.526796 -0.028523
v 0.238540 2.532101 -0.031646
v 0.248395 2.537789 -0.033172
v 0.533488 2.631205 -0.078827
v 0.619902 2.537801 -0.074722
v 0.603669 2.530745 0.139191
v -0.261828 3.934432 0.000316
v 0.424928 1.710511 0.040737
v 0.394334 2.165981 0.087319
v 0.493870 2.223557 0.096772
v 0.670479 2.325717 0.113545
v 0.217725 2.063821 0.070546
v 0.432545 1.714350 -0.062849
v 0.424964 1.710530 0.040239
v 0.877719 1.972426 0.083238
v 0.885299 1.976246 -0.019851
v 0.062361 2.364582 -0.125430
v 0.046111 2.356393 0.095559
v 0.498865 2.618289 0.138557
v 0.515116 2.626478 -0.082431
v 0.701109 1.870266 0.066465
v 0.569022 2.503452 0.099285
v 0.222720 2.458553 0.112331
v 0.116268 2.241556 0.056286
v 0.321552 1.887280 0.052569
v 0.322256 2.516129 0.121784
v 0.774306 2.149176 0.095567
v 0.670479 2.325717 0.113545
v 0.392413 2.401293 0.082512
v 0.292877 2.343716 0.073059
v 0.498161 1.989440 0.069341
v 0.597697 2.047016 0.078794
v 0.230696 2.070357 -0.105843
v 0.683450 2.332253 -0.062844
v 0.127318 2.247124 -0.093985
v 0.783808 2.153964 -0.033639
v 0.238971 2.466741 -0.108657
v 0.708690 1.874086 -0.036624
v 0.331053 1.892068 -0.076638
v 0.580073 2.509020 -0.050987
v 0.338506 2.524318 -0.099204
v 0.609154 1.816509 -0.046077
v 0.432526 1.714340 -0.062595
v 0.506841 2.230093 -0.079617
v 0.407305 2.172516 -0.089070
v 0.507663 1.994227 -0.059865
v 0.607199 2.051804 -0.050412
v 0.403463 2.406861 -0.067759
v 0.303927 2.349284 -0.077212
v 0.877751 1.972442 0.082793
v 0.885250 1.976221 -0.019182
v 0.701142 1.870283 0.066020
v 0.601537 1.812671 0.057510
v 0.708641 1.874061 -0.035954
v 0.609136 1.816500 -0.045822
v 1.223042 0.331761 0.034684
v 1.228716 0.334620 -0.042475
v 1.675796 0.593657 0.077682
v 1.681470 0.596516 0.000523
v 1.499187 0.491497 0.060910
v 1.399651 0.433921 0.051457
v 1.504861 0.494356 -0.016249
v 1.405325 0.436780 -0.025702
v 1.810226 -0.040357 0.025234
v 1.690951 -0.101142 0.014211
v 0.425925 1.711014 0.027173
v -0.309221 2.458190 -0.038043
v 0.431599 1.713873 -0.049986
v 0.425925 1.711014 0.027173
v 0.424964 1.710530 0.040239
v 0.425925 1.711014 0.027173
v -0.309221 2.458190 -0.038043
v 0.431599 1.713873 -0.049986
v 0.425925 1.711014 0.027173
v 0.424964 1.710530 0.040239
v 0.425925 1.711014 0.027173
v -0.309221 2.458190 -0.038043
v 0.431599 1.713873 -0.049986
v 0.425925 1.711014 0.027173
v 0.424964 1.710530 0.040239
v 0.425925 1.711014 0.027173
v -0.309221 2.458190 -0.038043
v 0.431599 1.713873 -0.049986
v 0.119066 1.924177 -0.026335
v 0.432281 1.713956 -0.060540
v 0.425925 1.711014 0.027173
v 1.223042 0.331761 0.034684
v 1.228716 0.334620 -0.042475
v 0.425925 1.711014 0.027173
v 0.431599 1.713873 -0.049986
v 0.119066 1.924177 -0.026335
v 1.223042 0.331761 0.034684
v 1.228716 0.334620 -0.042475
v 1.173904 0.273671 -0.009923
v 0.414673 1.700731 0.025965
v 0.421038 1.703629 -0.061400
v 0.365535 1.642641 -0.018642
v 0.655069 1.722274 0.044441
v 0.660992 1.725258 -0.036110
v 0.484383 1.623098 -0.052882
v 0.478459 1.620114 0.027668
v 0.478459 1.620114 0.027668
v 0.484286 1.623357 -0.050740
v 0.419188 1.552763 -0.018027
v 0.474161 1.614056 -0.051515
v 0.468326 1.610853 0.026580
v 0.763858 1.777890 -0.031602
v 0.756738 1.774303 0.065218
v 0.940467 1.880050 -0.014830
v 0.933347 1.876462 0.081990
v 0.877719 1.972426 0.083238
v 0.885299 1.976246 -0.019851
v 0.498865 2.618289 0.138557
v 0.515275 2.626558 -0.084593
v 0.569022 2.503452 0.099285
v 0.774306 2.149176 0.095567
v 0.683450 2.332253 -0.062844
v 0.783808 2.153964 -0.033639
v 0.580073 2.509020 -0.050987
v 0.811906 2.157313 -0.035058
v 0.801441 2.153163 0.100408
v 0.715035 2.418983 -0.056317
v 0.701780 2.413427 0.117085
v 0.864180 2.259040 0.029831
v 0.950400 2.041565 0.029950
v 0.869157 2.218762 0.030547
v 0.950400 2.041565 0.029950
v 0.950400 2.041565 0.029950
v 1.757370 0.645262 0.037554
v 0.583789 2.658389 -0.080829
v 0.626463 2.612865 -0.073293
v 0.608211 2.606080 0.145230
v 0.631314 2.521398 0.029879
v 0.653986 3.476360 0.071850
v 0.576934 2.584113 -0.078663
v 0.515211 2.626704 -0.083582
v 0.774306 2.149176 0.095567
v 0.523414 2.626704 -0.079122
v 0.564662 2.579337 -0.078133
v 0.826033 2.142672 0.035143
v 0.668250 2.477743 -0.067296
v 0.751009 2.284089 0.107618
v 0.762485 2.288718 -0.044197
v 0.653166 2.471717 0.129146
v 0.731441 2.393428 0.030268
v 0.843509 2.195660 0.073289
v 0.845852 2.201828 -0.005345
v 0.787079 2.152676 0.099288
v 0.566354 2.578542 -0.078675
v 0.841003 2.199554 0.073381
v 0.919781 2.137342 0.030380
v 0.845060 2.202481 -0.005291
v 0.950400 2.041565 0.029950
v 0.950400 2.041565 0.029950
v 0.224448 2.600949 0.117735
v 0.001118 2.470552 -0.126007
v -0.015133 2.462363 0.094982
v 0.437621 2.724259 0.137980
v 0.453872 2.732448 -0.083008
v 0.161476 2.564523 0.111754
v 0.261012 2.622100 0.121207
v 0.240699 2.609138 -0.103254
v 0.177727 2.572711 -0.109234
v 0.277263 2.630288 -0.099781
vn 0.500363 -0.865803 0.004716
vn -0.072685 0.282686 -0.956455
vn -0.500345 0.865814 -0.004567
vn 0.105669 -0.019447 -0.994211
vn 0.000000 0.000000 1.000000
vn -0.104531 0.017453 0.994368
vn 0.073288 0.036928 -0.996627
vn 0.105670 -0.019447 -0.994211
vn -0.072684 0.282684 -0.956456
vn -0.072684 0.282684 -0.956455
vn 0.026717 0.116811 -0.992795
vn 0.862702 0.499031 0.081930
vn 0.862703 0.499031 0.081931
vn 0.026716 0.116811 -0.992795
vn 0.862703 0.499031 0.081930
vn 0.030444 0.110469 -0.993413
vn -0.041758 -0.091164 0.994960
vn -0.862702 -0.499031 -0.081933
vn -0.862702 -0.499031 -0.081931
vn -0.141201 0.082126 0.986569
vn -0.104531 0.017453 0.994369
vn 0.205323 0.971137 0.121392
vn -0.183635 0.158175 0.970185
vn -0.500374 0.865797 -0.004716
vn -0.862703 -0.499030 -0.081932
vn -0.183636 0.158176 0.970185
vn -0.183636 0.158175 0.970185
vn -0.500368 0.865799 -0.004781
vn 0.544066 0.000000 0.839042
vn -0.756363 -0.654152 0.000000
vn 0.862703 0.499031 0.081928
vn -0.074433 -0.034948 0.996613
vn -0.076121 -0.032025 0.996584
vn 0.069460 0.043548 -0.996634
vn -0.862702 -0.499031 -0.081932
vn 0.073289 0.036929 -0.996627
vn 0.041760 0.091161 -0.994960
vn -0.877703 -0.472131 -0.082038
vn -0.104529 0.017449 0.994369
vn -0.976486 -0.200490 -0.079236
vn -0.104891 0.018082 0.994319
vn 0.041391 0.091791 -0.994918
vn 0.814193 0.000000 0.580594
vn -0.255974 -0.965141 -0.054585
vn -0.862703 -0.499033 -0.081911
vn 0.355197 0.342422 0.869817
vn -0.025284 -0.026813 -0.999321
vn 0.707235 0.702659 0.078033
vn 0.707234 0.702659 0.078045
vn 0.328032 0.243073 -0.912859
vn 0.189838 0.173440 0.966375
vn 0.191039 0.323212 0.926843
vn 0.270959 0.262897 0.925995
vn 0.322633 0.389520 -0.862660
vn 0.750520 -0.660034 0.032788
vn 0.455976 0.266385 -0.849191
vn -0.674415 0.737385 -0.037779
vn 0.396780 0.323891 -0.858871
vn -0.862703 -0.499031 -0.081929
vn -0.116915 0.039190 0.992368
vn 0.114308 -0.041752 -0.992568
vn -0.870141 -0.492388 0.020204
vn 0.326951 0.199348 0.923777
vn 0.457669 0.264665 -0.848818
vn -0.090566 -0.006934 0.995866
vn -0.707235 -0.702659 -0.078033
vn 0.862729 0.499032 0.081649
vn 0.995857 -0.056520 0.071233
vn -0.007330 -0.091528 -0.995776
vn 0.029987 -0.083793 0.996032
vn -0.035767 -0.663702 0.747142
vn 0.767352 -0.521581 0.372992
vn -0.199019 -0.050739 -0.978681
vn 0.028545 0.177213 0.983758
vn 0.659023 0.411047 -0.629864
vn 0.698529 -0.715149 0.024870
vn 0.665357 0.412411 0.622268
vn -0.852310 0.450639 0.265503
vn 0.425584 0.233114 -0.874377
vn 0.416958 0.237815 0.877263
vn 0.432586 0.017152 0.901429
vn 0.412812 0.048168 -0.909542
vn 0.102027 0.010022 -0.994731
vn 0.131185 -0.040995 -0.990510
vn -0.100178 0.977680 0.184677
vn 0.951557 -0.307442 0.004247
vn 0.948921 -0.315493 0.003533
vn 0.843904 -0.465399 -0.266891
vn 0.533268 0.156458 -0.831352
vn 0.483680 0.150758 0.862163
vn -0.561688 0.827347 0.001803
vn -0.959548 0.278816 -0.039114
vn -0.801649 0.464186 -0.376684
vn 0.500374 -0.865797 0.004714
vn -0.073289 -0.036929 0.996627
vn -0.073289 -0.036928 0.996627
vn -0.862703 -0.499030 -0.081931
vn 0.073289 0.036928 -0.996627
vn 0.862703 0.499030 0.081932
vn 0.500362 -0.865804 0.004714
vn 0.500367 -0.865800 0.004706
vn 0.500373 -0.865797 0.004715
vn 0.500324 -0.865825 0.004713
vn 0.500447 -0.865754 0.004676
vn 0.500372 -0.865798 0.004715
vn 0.500383 -0.865791 0.004712
vn 0.500374 -0.865797 0.004712
vn 0.500362 -0.865804 0.004718
vn 0.500369 -0.865800 0.004707
vn 0.500406 -0.865778 0.004738
vn 0.500302 -0.865838 0.004771
vn -0.500387 0.865790 -0.004567
vn 0.500387 -0.865789 0.004715
vn 0.500360 -0.865805 0.004709
vn 0.500387 -0.865789 0.004718
vn 0.500405 -0.865778 0.004720
vn 0.500361 -0.865804 0.004701
vn 0.500362 -0.865803 0.004711
vn 0.500387 -0.865789 0.004731
vn 0.500380 -0.865793 0.004721
vn 0.500334 -0.865820 0.004687
vn 0.500389 -0.865788 0.004722
vn 0.500366 -0.865801 0.004716
vn 0.500371 -0.865798 0.004723
vn 0.500372 -0.865797 0.004720
vn 0.500370 -0.865799 0.004715
vn 0.500374 -0.865796 0.004719
vn 0.500389 -0.865788 0.004716
vn 0.026716 0.116812 -0.992795
vn 0.862703 0.499030 0.081933
vn -0.041758 -0.091165 0.994960
vn -0.862703 -0.499031 -0.081930
vn -1.000000 0.000000 0.000000
vn -0.041757 -0.091164 0.994960
vn -0.500373 0.865797 -0.004715
vn -0.862702 -0.499032 -0.081929
vn -0.500378 0.865794 -0.004768
vn 0.517431 -0.849117 0.106140
vn 0.013671 0.999907 0.000000
vn -0.862703 -0.499031 -0.081931
vn 0.862702 0.499031 0.081932
vn -0.074433 -0.034948 0.996614
vn 0.053752 0.024648 -0.998250
vn 0.968640 0.000000 -0.248469
vn 0.862702 0.499031 0.081933
vn 0.427001 0.515040 -0.743239
vn 0.862704 0.499031 0.081915
vn 0.311563 0.208237 -0.927128
vn 0.304053 0.399658 0.864769
vn 0.862703 0.499031 0.081920
vn 0.132269 0.010865 0.991154
vn 0.339345 0.323578 0.883257
vn 0.761480 -0.628835 0.157209
vn -0.865779 -0.499974 0.021287
vn 0.405342 0.247992 0.879885
vn 0.455976 0.266384 -0.849191
vn -0.334803 -0.317344 -0.887243
vn 0.309475 0.547359 -0.777575
vn -0.862702 -0.499031 -0.081934
vn 0.143810 -0.041167 -0.988749
vn 0.114307 -0.041752 -0.992568
vn 0.862703 0.499031 0.081925
vn -0.841438 -0.504056 -0.194702
vn 0.334248 0.203051 0.920352
vn 0.862703 0.499030 0.081931
vn -0.090566 -0.006935 0.995866
vn -0.862704 -0.499029 -0.081929
vn -0.968640 0.000000 0.248469
vn -0.862723 -0.499051 -0.081591
vn 0.040598 0.093147 -0.994824
vn 0.862736 0.499002 0.081753
vn 0.067284 0.047307 -0.996612
vn 0.037627 0.093932 -0.994867
vn 0.063386 0.049700 -0.996751
vn -0.862692 -0.499015 -0.082131
vn -0.038394 -0.099072 -0.994339
vn 0.862706 0.499024 0.081931
vn -0.995873 0.056230 -0.071234
vn 0.232756 -0.869862 -0.434931
vn 0.329237 0.404523 -0.853208
vn 0.021819 0.016643 -0.999623
vn -0.074679 -0.083491 0.993706
vn 0.137960 -0.089052 0.986426
vn 0.007120 -0.128212 -0.991721
vn 0.150135 0.347420 0.925613
vn -0.181531 -0.346748 -0.920224
vn -0.451391 -0.503831 0.736479
vn -0.244837 -0.128126 0.961061
vn -0.378362 -0.142602 0.914608
vn 0.044401 -0.056107 0.997437
vn 0.220341 -0.006827 -0.975399
vn -0.862736 -0.499002 -0.081753
vn -0.151131 -0.156508 0.976045
vn -0.315154 -0.404167 -0.858677
vn -0.286682 -0.341458 -0.895109
vn 0.225110 -0.008647 -0.974295
vn 0.331436 0.186511 -0.924859
vn -0.238695 -0.399593 -0.885071
vn 0.241799 0.023473 -0.970042
vn 0.330278 0.195907 0.923329
vn 0.532697 0.145910 -0.833633
vn 0.517951 0.136397 0.844466
vn 0.500372 -0.865798 0.004716
vn 0.492455 0.161269 -0.855266
vn 0.514273 0.059857 0.855535
vn 0.000000 -0.011718 -0.999931
vn 0.500373 -0.865797 0.004714
vn 0.500374 -0.865797 0.004716
vn -0.073288 -0.036928 0.996627
s off
f 19//1 20//1 30//1
f 55//2 48//2 51//2
f 42//3 72//3 84//3
f 51//4 40//4 39//4
f 63//5 146//5 148//5
f 68//6 42//6 71//6
f 189//7 190//7 55//7
f 53//8 59//8 38//8
f 52//9 59//9 53//9
f 52//10 55//10 58//10
f 38//11 60//11 54//11
f 67//12 76//12 61//12
f 61//13 76//13 73//13
f 40//14 56//14 61//14
f 39//15 73//15 77//15
f 131//16 54//16 60//16
f 64//17 62//17 74//17
f 74//18 75//18 60//18
f 38//19 59//19 78//19
f 62//20 68//20 75//20
f 76//21 67//21 45//21
f 63//20 73//20 76//20
f 50//22 81//22 83//22
f 77//17 73//17 63//17
f 49//23 70//23 77//23
f 59//24 58//24 77//24
f 82//25 60//25 75//25
f 78//26 77//26 70//26
f 66//27 46//27 64//27
f 45//28 67//28 83//28
f 45//29 80//29 79//29
f 43//30 37//30 72//30
f 128//19 92//19 90//19
f 137//31 89//31 91//31
f 128//32 129//32 86//32
f 138//33 136//33 91//33
f 139//34 87//34 89//34
f 117//5 122//5 134//5
f 139//35 138//35 88//35
f 130//36 127//36 90//36
f 87//37 93//37 89//37
f 90//38 92//38 94//38
f 91//12 89//12 93//12
f 91//39 93//39 88//39
f 87//40 88//40 93//40
f 86//41 94//41 92//41
f 90//42 94//42 85//42
f 42//43 97//43 95//43
f 97//5 102//5 100//5
f 46//44 47//44 96//44
f 53//45 43//45 37//45
f 96//46 68//46 62//46
f 33//47 159//47 164//47
f 102//5 107//5 105//5
f 37//48 98//48 101//48
f 96//5 101//5 102//5
f 95//5 100//5 99//5
f 43//5 99//5 98//5
f 107//5 112//5 110//5
f 98//5 103//5 106//5
f 101//5 106//5 107//5
f 100//5 105//5 104//5
f 99//5 104//5 103//5
f 111//49 110//49 112//49
f 103//5 108//5 111//5
f 106//5 111//5 112//5
f 105//5 110//5 109//5
f 104//5 109//5 108//5
f 108//5 118//5 120//5
f 113//5 120//5 119//5
f 111//50 108//50 113//50
f 112//51 111//51 113//51
f 85//5 116//5 131//5
f 86//5 117//5 132//5
f 94//5 86//5 122//5
f 85//5 121//5 122//5
f 94//52 122//52 123//52
f 85//5 94//5 121//5
f 133//53 134//53 125//53
f 121//54 94//54 123//54
f 125//55 124//55 126//55
f 133//56 126//56 124//56
f 135//7 124//7 115//7
f 112//57 114//57 125//57
f 124//58 126//58 113//58
f 82//59 84//59 128//59
f 84//60 72//60 129//60
f 114//61 132//61 134//61
f 130//5 131//5 115//5
f 72//62 129//62 132//62
f 123//63 122//63 134//63
f 123//64 133//64 135//64
f 121//7 135//7 131//7
f 83//13 81//13 137//13
f 83//65 136//65 138//65
f 80//18 138//18 139//18
f 108//66 37//66 111//66
f 43//35 42//35 131//35
f 137//67 81//67 50//67
f 149//5 141//5 45//5
f 65//5 147//5 146//5
f 165//68 49//68 143//68
f 40//5 57//5 145//5
f 51//5 144//5 57//5
f 44//5 140//5 141//5
f 45//5 141//5 147//5
f 142//5 48//5 49//5
f 56//5 166//5 145//5
f 48//5 142//5 144//5
f 164//69 34//69 168//69
f 171//70 40//70 56//70
f 150//71 177//71 56//71
f 150//72 169//72 175//72
f 63//73 69//73 170//73
f 147//74 149//74 63//74
f 180//75 181//75 155//75
f 79//76 141//76 154//76
f 179//77 180//77 155//77
f 149//78 169//78 181//78
f 88//79 80//79 157//79
f 157//80 140//80 87//80
f 158//81 87//81 93//81
f 88//82 158//82 93//82
f 164//83 160//83 34//83
f 164//84 159//84 160//84
f 49//85 167//85 165//85
f 175//86 176//86 153//86
f 175//87 169//87 176//87
f 169//88 149//88 176//88
f 149//89 181//89 180//89
f 79//90 154//90 180//90
f 181//91 179//91 155//91
f 181//92 169//92 179//92
f 169//93 150//93 179//93
f 184//94 192//94 191//94
f 66//95 70//95 193//95
f 70//95 49//95 188//95
f 46//96 66//96 192//96
f 48//97 187//97 188//97
f 55//98 190//98 187//98
f 46//99 185//99 186//99
f 47//36 186//36 189//36
f 16//100 17//100 2//100
f 4//101 15//101 3//101
f 6//102 12//102 5//102
f 8//103 11//103 7//103
f 8//104 9//104 10//104
f 58//2 55//2 51//2
f 14//105 4//105 13//105
f 31//106 32//106 19//106
f 18//107 32//107 17//107
f 29//108 21//108 22//108
f 28//109 29//109 22//109
f 24//110 27//110 23//110
f 24//111 25//111 26//111
f 71//112 42//112 84//112
f 30//113 20//113 29//113
f 5//114 12//114 13//114
f 32//115 18//115 19//115
f 24//116 26//116 27//116
f 27//117 28//117 23//117
f 31//118 19//118 30//118
f 4//119 14//119 15//119
f 7//120 11//120 6//120
f 8//121 10//121 11//121
f 4//122 5//122 13//122
f 32//123 1//123 17//123
f 28//124 22//124 23//124
f 17//125 1//125 2//125
f 20//126 21//126 29//126
f 3//127 15//127 2//127
f 11//128 12//128 6//128
f 15//94 16//94 2//94
f 58//4 51//4 39//4
f 69//5 63//5 148//5
f 75//6 68//6 71//6
f 52//36 189//36 55//36
f 41//4 53//4 38//4
f 47//2 52//2 53//2
f 59//10 52//10 58//10
f 41//129 38//129 54//129
f 50//13 67//13 61//13
f 39//12 61//12 73//12
f 39//14 40//14 61//14
f 58//130 39//130 77//130
f 127//16 131//16 60//16
f 78//131 64//131 74//131
f 38//132 74//132 60//132
f 74//132 38//132 78//132
f 74//20 62//20 75//20
f 65//21 76//21 45//21
f 65//20 63//20 76//20
f 67//133 50//133 83//133
f 69//134 77//134 63//134
f 69//26 49//26 77//26
f 78//135 59//135 77//135
f 84//136 82//136 75//136
f 66//23 78//23 70//23
f 78//23 66//23 64//23
f 80//137 45//137 83//137
f 44//138 45//138 79//138
f 42//139 43//139 72//139
f 127//140 128//140 90//140
f 136//141 137//141 91//141
f 92//142 128//142 86//142
f 88//33 138//33 91//33
f 137//34 139//34 89//34
f 132//143 117//143 134//143
f 87//132 139//132 88//132
f 85//36 130//36 90//36
f 43//144 42//144 95//144
f 95//5 97//5 100//5
f 53//145 41//145 54//145
f 96//146 47//146 53//146
f 53//147 54//147 43//147
f 37//148 96//148 53//148
f 64//149 46//149 96//149
f 42//150 68//150 97//150
f 64//151 96//151 62//151
f 100//5 102//5 105//5
f 68//152 96//152 97//152
f 96//5 37//5 101//5
f 97//5 96//5 102//5
f 43//5 95//5 99//5
f 37//153 43//153 98//153
f 105//5 107//5 110//5
f 101//5 98//5 106//5
f 102//5 101//5 107//5
f 99//5 100//5 104//5
f 98//5 99//5 103//5
f 108//5 109//5 110//5
f 111//5 108//5 110//5
f 106//5 103//5 111//5
f 107//5 106//5 112//5
f 104//5 105//5 109//5
f 103//5 104//5 108//5
f 113//5 108//5 120//5
f 112//5 113//5 119//5
f 130//5 85//5 131//5
f 129//154 86//154 132//154
f 86//5 85//5 122//5
f 126//155 133//155 125//155
f 135//156 133//156 124//156
f 131//7 135//7 115//7
f 125//157 126//157 113//157
f 113//5 108//5 115//5
f 113//158 112//158 125//158
f 127//159 82//159 128//159
f 115//160 124//160 113//160
f 128//60 84//60 129//60
f 125//161 114//161 134//161
f 37//162 130//162 115//162
f 114//163 72//163 132//163
f 133//164 123//164 134//164
f 121//64 123//64 135//64
f 116//5 121//5 131//5
f 136//165 83//165 137//165
f 80//166 83//166 138//166
f 79//167 80//167 139//167
f 96//5 108//5 111//5
f 131//5 130//5 37//5
f 43//168 115//168 42//168
f 131//169 37//169 43//169
f 50//170 61//170 56//170
f 56//171 44//171 79//171
f 79//172 139//172 137//172
f 63//5 65//5 146//5
f 50//173 56//173 79//173
f 79//174 137//174 50//174
f 45//175 80//175 65//175
f 149//176 45//176 65//176
f 49//5 69//5 148//5
f 166//5 56//5 40//5
f 40//5 51//5 57//5
f 49//177 148//177 143//177
f 40//5 145//5 166//5
f 45//5 44//5 141//5
f 65//5 45//5 147//5
f 140//5 44//5 56//5
f 49//178 165//178 143//178
f 49//179 143//179 142//179
f 51//5 48//5 144//5
f 56//5 145//5 140//5
f 143//5 148//5 69//5
f 167//180 164//180 49//180
f 167//181 33//181 164//181
f 177//182 150//182 171//182
f 173//183 40//183 152//183
f 164//184 168//184 143//184
f 69//185 164//185 143//185
f 164//186 69//186 49//186
f 173//187 35//187 144//187
f 144//5 57//5 40//5
f 177//188 171//188 56//188
f 44//5 140//5 150//5
f 173//189 144//189 40//189
f 40//190 171//190 152//190
f 63//191 170//191 151//191
f 56//192 79//192 44//192
f 150//193 56//193 44//193
f 69//194 49//194 178//194
f 170//195 69//195 34//195
f 172//196 63//196 151//196
f 146//5 147//5 63//5
f 158//197 88//197 157//197
f 69//198 178//198 34//198
f 172//199 149//199 63//199
f 158//200 157//200 87//200
f 149//201 180//201 141//201
f 79//202 180//202 150//202
f 193//203 188//203 187//203
f 180//204 154//204 141//204
f 184//102 191//102 190//102
f 180//205 179//205 150//205
f 184//206 189//206 186//206
f 186//207 185//207 192//207
f 187//102 190//102 193//102
f 184//102 186//102 192//102
f 190//208 191//208 193//208
f 193//96 70//96 188//96
f 192//209 66//209 193//209
f 185//96 46//96 192//96
f 49//19 48//19 188//19
f 48//98 55//98 187//98
f 47//12 46//12 186//12
f 52//7 47//7 189//7
l 162 34
l 43 130
l 42 37
l 48 143
l 174 151
l 182 156
l 183 157
l 161 35
l 162 35
l 174 152
l 182 154
l 183 156
