# Blender v2.70 (sub 0) OBJ File: 'sword2.blend'
# www.blender.org
o Cylinder
v 0.258518 2.543640 -0.033042
v 0.087179 2.840108 -0.034656
v 0.268520 2.549430 -0.031261
v 0.097181 2.845898 -0.032875
v 0.278016 2.554936 -0.027897
v 0.106677 2.851404 -0.029512
v 0.286641 2.559947 -0.023080
v 0.115302 2.856416 -0.024695
v 0.294064 2.564270 -0.016995
v 0.122725 2.860739 -0.018610
v 0.300000 2.567739 -0.009876
v 0.128661 2.864208 -0.011491
v 0.304220 2.570221 -0.001996
v 0.132881 2.866690 -0.003611
v 0.306563 2.571620 0.006342
v 0.135224 2.868089 0.004727
v 0.306937 2.571883 0.014817
v 0.135598 2.868352 0.013203
v 0.305330 2.570999 0.023104
v 0.133991 2.867468 0.021490
v 0.301802 2.569003 0.030885
v 0.130463 2.865471 0.029270
v 0.296490 2.565971 0.037859
v 0.125151 2.862439 0.036245
v 0.289596 2.562019 0.043760
v 0.118257 2.858488 0.042146
v 0.281388 2.557300 0.048361
v 0.110049 2.853768 0.046746
v 0.272178 2.551995 0.051484
v 0.100839 2.848463 0.049869
v 0.262323 2.546307 0.053009
v 0.090984 2.842776 0.051395
v 0.252200 2.540456 0.052879
v 0.080861 2.836925 0.051265
v 0.242198 2.534666 0.051098
v 0.070859 2.831134 0.049484
v 0.232702 2.529160 0.047735
v 0.061363 2.825628 0.046120
v 0.224077 2.524149 0.042918
v 0.052738 2.820617 0.041303
v 0.216654 2.519825 0.036833
v 0.045315 2.816294 0.035218
v 0.210718 2.516356 0.029713
v 0.039379 2.812825 0.028099
v 0.206498 2.513875 0.021833
v 0.035159 2.810343 0.020219
v 0.204156 2.512475 0.013496
v 0.032817 2.808944 0.011881
v 0.203781 2.512213 0.005020
v 0.032442 2.808681 0.003406
v 0.205389 2.513096 -0.003267
v 0.034050 2.809565 -0.004881
v 0.208916 2.515093 -0.011047
v 0.037577 2.811561 -0.012662
v 0.214229 2.518125 -0.018022
v 0.042890 2.814594 -0.019636
v 0.221122 2.522077 -0.023923
v 0.049783 2.818545 -0.025537
v 0.229331 2.526796 -0.028523
v 0.057992 2.823264 -0.030138
v 0.238540 2.532101 -0.031646
v 0.067201 2.828569 -0.033261
v 0.248395 2.537789 -0.033172
v 0.077056 2.834257 -0.034786
v -0.266469 3.452026 -0.037989
v -0.256467 3.457816 -0.036208
v -0.246971 3.463322 -0.032844
v -0.238346 3.468333 -0.028027
v -0.230923 3.472657 -0.021942
v -0.224987 3.476126 -0.014823
v -0.220767 3.478608 -0.006943
v -0.218424 3.480007 0.001395
v -0.218050 3.480270 0.009870
v -0.219657 3.479386 0.018157
v -0.223185 3.477389 0.025938
v -0.228497 3.474357 0.032912
v -0.235390 3.470406 0.038813
v -0.243599 3.465686 0.043414
v -0.252808 3.460381 0.046537
v -0.262664 3.454694 0.048063
v -0.272787 3.448843 0.047932
v -0.282789 3.443052 0.046151
v -0.292285 3.437546 0.042788
v -0.300910 3.432535 0.037971
v -0.308333 3.428212 0.031886
v -0.314268 3.424743 0.024767
v -0.318489 3.422261 0.016887
v -0.320831 3.420862 0.008549
v -0.321206 3.420599 0.000073
v -0.319598 3.421483 -0.008214
v -0.316071 3.423479 -0.015994
v -0.310758 3.426512 -0.022969
v -0.303865 3.430463 -0.028870
v -0.295656 3.435182 -0.033470
v -0.286447 3.440487 -0.036593
v -0.276592 3.446175 -0.038119
v -0.189220 3.444653 0.001728
v -0.263134 3.422721 -0.007992
v -0.136964 3.345740 0.005388
vn 0.134213 0.072184 -0.988320
vn 0.255924 0.142700 -0.956107
vn 0.378599 0.213901 -0.900505
vn 0.502402 0.285911 -0.815994
vn 0.624437 0.357100 -0.694663
vn 0.736675 0.422876 -0.527717
vn 0.823606 0.474296 -0.310992
vn 0.864685 0.499438 -0.053678
vn 0.844847 0.489442 0.216055
vn 0.766756 0.445650 0.462041
vn 0.649370 0.378884 0.659367
vn 0.514337 0.301624 0.802796
vn 0.376257 0.222349 0.899440
vn 0.241838 0.144991 0.959423
vn 0.112734 0.070551 0.991117
vn -0.011996 -0.001488 0.999927
vn -0.134211 -0.072183 0.988320
vn -0.255931 -0.142704 0.956104
vn -0.378609 -0.213907 0.900500
vn -0.502395 -0.285907 0.816000
vn -0.624455 -0.357111 0.694642
vn -0.736679 -0.422878 0.527711
vn -0.823609 -0.474298 0.310983
vn -0.864685 -0.499438 0.053682
vn -0.844839 -0.489438 -0.216095
vn -0.766763 -0.445654 -0.462025
vn -0.649384 -0.378892 -0.659349
vn -0.514333 -0.301622 -0.802799
vn -0.376242 -0.222341 -0.899448
vn -0.241853 -0.144999 -0.959418
vn -0.823603 -0.474294 0.311005
vn 0.011997 0.001488 -0.999927
vn -0.112726 -0.070545 -0.991119
vn 0.500363 -0.865803 0.004716
vn -0.500384 0.865791 -0.004708
vn 0.514335 0.301623 0.802797
vn -0.766773 -0.445660 -0.462003
vn 0.502407 0.285914 -0.815991
vn 0.112730 0.070548 0.991118
vn -0.376241 -0.222340 -0.899448
vn -0.255925 -0.142701 0.956106
vn 0.823605 0.474295 -0.310997
vn 0.011996 0.001488 -0.999927
vn -0.624466 -0.357117 0.694629
vn 0.766765 0.445655 0.462020
vn -0.864682 -0.499436 0.053734
vn 0.255928 0.142702 -0.956105
vn 0.376242 0.222341 0.899448
vn -0.649393 -0.378897 -0.659337
vn 0.624467 0.357117 -0.694628
vn -0.011997 -0.001488 0.999927
vn -0.241842 -0.144993 -0.959421
vn -0.378623 -0.213915 0.900491
vn 0.134217 0.072186 -0.988319
vn 0.864684 0.499438 -0.053695
vn -0.736684 -0.422880 0.527702
vn 0.649367 0.378881 0.659372
vn -0.844851 -0.489444 -0.216036
vn 0.378607 0.213906 -0.900500
vn 0.241844 0.144994 0.959421
vn -0.514334 -0.301623 -0.802798
vn -0.134209 -0.072182 0.988321
vn 0.736699 0.422889 -0.527674
vn -0.112728 -0.070547 -0.991118
vn -0.502373 -0.285894 0.816019
vn 0.844848 0.489442 0.216051
vn 0.134214 0.072184 -0.988320
vn 0.255920 0.142698 -0.956108
vn 0.378620 0.213913 -0.900493
vn 0.502409 0.285915 -0.815989
vn 0.624449 0.357107 -0.694649
vn 0.736676 0.422876 -0.527717
vn 0.823611 0.474299 -0.310975
vn 0.864684 0.499437 -0.053711
vn 0.766770 0.445658 0.462010
vn 0.649386 0.378893 0.659346
vn 0.514326 0.301618 0.802805
vn 0.376256 0.222350 0.899440
vn 0.241834 0.144988 0.959424
vn 0.112732 0.070549 0.991118
vn -0.134214 -0.072185 0.988320
vn -0.255923 -0.142700 0.956107
vn -0.378620 -0.213913 0.900493
vn -0.502397 -0.285908 0.815999
vn -0.624449 -0.357107 0.694650
vn -0.736675 -0.422876 0.527717
vn -0.823606 -0.474296 0.310993
vn -0.864681 -0.499435 0.053772
vn -0.766770 -0.445658 -0.462009
vn -0.649370 -0.378883 -0.659368
vn -0.514348 -0.301630 -0.802786
vn -0.376239 -0.222339 -0.899449
vn -0.241849 -0.144997 -0.959419
vn -0.823624 -0.474307 0.310928
vn -0.112725 -0.070545 -0.991119
vn 0.500362 -0.865804 0.004714
vn 0.500367 -0.865800 0.004706
vn 0.500373 -0.865797 0.004715
vn 0.500324 -0.865825 0.004713
vn 0.500447 -0.865754 0.004676
vn -0.500370 0.865799 -0.004720
vn 0.500372 -0.865798 0.004715
vn 0.500383 -0.865791 0.004712
vn 0.500374 -0.865797 0.004712
vn 0.500362 -0.865804 0.004718
vn 0.500369 -0.865800 0.004707
vn 0.500406 -0.865778 0.004738
vn 0.500302 -0.865838 0.004771
vn -0.500361 0.865804 -0.004715
vn 0.500387 -0.865789 0.004715
vn 0.500360 -0.865805 0.004709
vn 0.500387 -0.865789 0.004718
vn 0.500405 -0.865778 0.004720
vn 0.500361 -0.865804 0.004701
vn 0.500362 -0.865803 0.004711
vn 0.500387 -0.865789 0.004731
vn 0.500380 -0.865793 0.004721
vn 0.500334 -0.865820 0.004687
vn 0.500389 -0.865788 0.004722
vn 0.500366 -0.865801 0.004716
vn 0.500371 -0.865798 0.004723
vn 0.500372 -0.865797 0.004720
vn 0.500370 -0.865799 0.004715
vn 0.500374 -0.865796 0.004719
vn 0.500389 -0.865788 0.004716
vn 0.500374 -0.865797 0.004714
vn -0.500355 0.865807 -0.004715
vn -0.500350 0.865810 -0.004705
vn -0.500411 0.865776 -0.004687
vn -0.500303 0.865837 -0.004720
vn -0.500374 0.865796 -0.004719
vn -0.500391 0.865786 -0.004718
vn -0.500372 0.865798 -0.004716
vn -0.500374 0.865796 -0.004712
vn -0.500388 0.865788 -0.004715
vn -0.500358 0.865806 -0.004709
vn -0.500394 0.865785 -0.004690
vn -0.766760 -0.445652 -0.462033
vn -0.500351 0.865810 -0.004696
vn -0.500382 0.865792 -0.004714
vn -0.500370 0.865799 -0.004714
vn -0.500366 0.865801 -0.004728
vn -0.500354 0.865808 -0.004663
vn -0.500386 0.865790 -0.004718
vn -0.500379 0.865793 -0.004726
vn -0.500379 0.865794 -0.004711
vn -0.500364 0.865802 -0.004748
vn -0.500362 0.865804 -0.004714
vn -0.500371 0.865798 -0.004721
vn -0.500382 0.865792 -0.004730
vn -0.500381 0.865792 -0.004714
vn 0.514320 0.301615 0.802810
vn -0.500374 0.865796 -0.004706
vn -0.500405 0.865778 -0.004729
vn -0.500370 0.865799 -0.004715
vn 0.502374 0.285895 -0.816017
vn 0.112731 0.070548 0.991118
vn -0.376252 -0.222347 -0.899442
vn -0.255919 -0.142697 0.956108
vn 0.823615 0.474301 -0.310963
vn -0.624452 -0.357108 0.694646
vn 0.766786 0.445668 0.461974
vn -0.864684 -0.499437 0.053695
vn 0.255918 0.142697 -0.956108
vn 0.376241 0.222341 0.899448
vn -0.649362 -0.378879 -0.659378
vn 0.624437 0.357100 -0.694664
vn -0.241843 -0.144994 -0.959421
vn -0.378627 -0.213917 0.900489
vn 0.134211 0.072183 -0.988320
vn 0.864684 0.499437 -0.053695
vn -0.736671 -0.422873 0.527725
vn 0.649393 0.378897 0.659337
vn -0.844840 -0.489438 -0.216089
vn 0.378607 0.213906 -0.900501
vn 0.241843 0.144994 0.959421
vn -0.514349 -0.301631 -0.802785
vn -0.134216 -0.072185 0.988320
vn 0.736671 0.422873 -0.527726
vn -0.112722 -0.070543 -0.991119
vn -0.502388 -0.285903 0.816005
s off
f 2//1 4//1 3//1
f 4//2 6//2 5//2
f 6//3 8//3 7//3
f 7//4 8//4 10//4
f 9//5 10//5 12//5
f 12//6 14//6 13//6
f 14//7 16//7 15//7
f 15//8 16//8 18//8
f 18//9 20//9 19//9
f 20//10 22//10 21//10
f 22//11 24//11 23//11
f 23//12 24//12 26//12
f 26//13 28//13 27//13
f 27//14 28//14 30//14
f 30//15 32//15 31//15
f 31//16 32//16 34//16
f 34//17 36//17 35//17
f 36//18 38//18 37//18
f 38//19 40//19 39//19
f 39//20 40//20 42//20
f 41//21 42//21 44//21
f 43//22 44//22 46//22
f 45//23 46//23 48//23
f 47//24 48//24 50//24
f 50//25 52//25 51//25
f 52//26 54//26 53//26
f 53//27 54//27 56//27
f 56//28 58//28 57//28
f 57//29 58//29 60//29
f 60//30 62//30 61//30
f 46//31 87//31 88//31
f 64//32 2//32 1//32
f 61//33 62//33 64//33
f 37//34 39//34 59//34
f 77//35 69//35 68//35
f 26//36 24//36 76//36
f 54//37 52//37 90//37
f 8//38 68//38 69//38
f 32//39 30//39 79//39
f 60//40 58//40 93//40
f 36//41 82//41 83//41
f 16//42 14//42 71//42
f 2//43 64//43 96//43
f 44//44 42//44 85//44
f 20//45 74//45 75//45
f 50//46 48//46 88//46
f 4//47 66//47 67//47
f 28//48 26//48 77//48
f 56//49 54//49 91//49
f 12//50 10//50 69//50
f 32//51 80//51 81//51
f 60//52 94//52 95//52
f 38//53 83//53 84//53
f 2//54 65//54 66//54
f 18//55 16//55 72//55
f 44//56 86//56 87//56
f 22//57 75//57 76//57
f 50//58 89//58 90//58
f 6//59 67//59 68//59
f 28//60 78//60 79//60
f 56//61 92//61 93//61
f 34//62 81//62 82//62
f 14//63 12//63 70//63
f 64//64 62//64 95//64
f 40//65 84//65 85//65
f 20//66 18//66 73//66
f 1//67 2//67 3//67
f 3//68 4//68 5//68
f 5//69 6//69 7//69
f 9//70 7//70 10//70
f 11//71 9//71 12//71
f 11//72 12//72 13//72
f 13//73 14//73 15//73
f 17//74 15//74 18//74
f 17//9 18//9 19//9
f 19//75 20//75 21//75
f 21//76 22//76 23//76
f 25//77 23//77 26//77
f 25//78 26//78 27//78
f 29//79 27//79 30//79
f 29//80 30//80 31//80
f 33//51 31//51 34//51
f 33//81 34//81 35//81
f 35//82 36//82 37//82
f 37//83 38//83 39//83
f 41//84 39//84 42//84
f 43//85 41//85 44//85
f 45//86 43//86 46//86
f 47//87 45//87 48//87
f 49//88 47//88 50//88
f 49//25 50//25 51//25
f 51//89 52//89 53//89
f 55//90 53//90 56//90
f 55//91 56//91 57//91
f 59//92 57//92 60//92
f 59//93 60//93 61//93
f 48//94 46//94 88//94
f 63//43 64//43 1//43
f 63//95 61//95 64//95
f 31//96 33//96 3//96
f 7//97 29//97 5//97
f 11//98 23//98 9//98
f 15//99 21//99 13//99
f 15//100 17//100 19//100
f 65//101 81//101 66//101
f 27//102 7//102 25//102
f 61//103 63//103 37//103
f 35//104 63//104 33//104
f 57//105 41//105 43//105
f 55//106 57//106 43//106
f 47//107 53//107 45//107
f 47//108 49//108 51//108
f 83//109 82//109 95//109
f 59//110 39//110 57//110
f 9//111 23//111 25//111
f 63//112 35//112 37//112
f 47//113 51//113 53//113
f 53//114 55//114 45//114
f 61//115 37//115 59//115
f 7//116 27//116 29//116
f 13//117 21//117 11//117
f 15//118 19//118 21//118
f 7//119 9//119 25//119
f 63//120 1//120 33//120
f 55//121 43//121 45//121
f 33//122 1//122 3//122
f 39//123 41//123 57//123
f 5//124 29//124 3//124
f 21//125 23//125 11//125
f 29//126 31//126 3//126
f 93//127 84//127 94//127
f 70//128 69//128 77//128
f 74//129 72//129 75//129
f 87//130 90//130 88//130
f 84//131 83//131 95//131
f 86//132 85//132 92//132
f 65//133 96//133 81//133
f 79//134 67//134 80//134
f 77//135 68//135 78//135
f 75//136 70//136 76//136
f 92//137 91//137 87//137
f 91//138 54//138 90//138
f 87//139 91//139 90//139
f 96//140 82//140 81//140
f 68//141 67//141 78//141
f 76//142 70//142 77//142
f 90//143 89//143 88//143
f 85//144 93//144 92//144
f 94//145 84//145 95//145
f 75//146 71//146 70//146
f 74//147 73//147 72//147
f 81//148 80//148 66//148
f 93//149 85//149 84//149
f 86//150 92//150 87//150
f 82//151 96//151 95//151
f 77//152 26//152 76//152
f 80//153 67//153 66//153
f 72//154 71//154 75//154
f 67//155 79//155 78//155
f 10//156 8//156 69//156
f 80//157 32//157 79//157
f 94//158 60//158 93//158
f 38//159 36//159 83//159
f 72//160 16//160 71//160
f 65//43 2//43 96//43
f 86//161 44//161 85//161
f 22//162 20//162 75//162
f 89//163 50//163 88//163
f 6//164 4//164 67//164
f 78//165 28//165 77//165
f 92//166 56//166 91//166
f 70//167 12//167 69//167
f 34//51 32//51 81//51
f 62//168 60//168 95//168
f 40//169 38//169 84//169
f 4//170 2//170 66//170
f 73//171 18//171 72//171
f 46//172 44//172 87//172
f 24//173 22//173 76//173
f 52//174 50//174 90//174
f 8//175 6//175 68//175
f 30//176 28//176 79//176
f 58//177 56//177 93//177
f 36//178 34//178 82//178
f 71//179 14//179 70//179
f 96//180 64//180 95//180
f 42//181 40//181 85//181
f 74//66 20//66 73//66
l 97 98
